<?xml version="1.0" encoding="UTF-8"?>
<svg width="124px" height="345px" viewBox="0 0 124 345" version="1.1" xmlns="http://www.w3.org/2000/svg" xmlns:xlink="http://www.w3.org/1999/xlink">
    <!-- Generator: Sketch 41.2 (35397) - http://www.bohemiancoding.com/sketch -->
    <title>leaf</title>
    <desc>Created with Sketch.</desc>
    <defs></defs>
    <g id="Page-1" stroke="none" stroke-width="1" fill="none" fill-rule="evenodd">
        <g id="Group" fill="#50E3C2">
            <path d="M64.5103325,298.948099 C63.3730427,292.490119 62.4991253,286.000168 61.8167514,279.494232 C70.0092283,267.237656 79.4826526,254.889166 85.6798842,241.589562 C86.4939443,239.839193 84.2592696,237.657227 82.7907692,239.35964 C74.4626156,249.038619 67.8104681,260.599843 61.0944727,271.697499 C60.2085838,260.575865 59.909297,249.394287 59.9891068,238.180739 C70.2885626,225.264778 80.7995144,212.037107 88.8642956,197.586576 C90.145243,195.288718 86.9289077,193.578312 85.4284833,195.57645 C80.9072577,201.602833 76.8329669,207.944921 72.4833324,214.099185 C70.2686102,217.228269 64.8215907,227.083083 60.104831,230.8196 C60.4240703,215.981431 61.3618355,201.095306 62.5270587,186.209181 C69.7578274,174.296285 78.3054579,163.614241 86.4460584,152.356734 C87.7589298,150.538429 84.9137101,148.464362 83.3933332,149.998932 C75.6238483,157.823638 69.095406,167.206892 63.2892424,176.742005 C63.3012139,176.622117 63.3091949,176.506225 63.3211663,176.386337 C64.4664371,162.834967 65.8431563,149.331554 67.5071908,135.880092 C76.2902602,125.473791 87.0166985,116.889792 95.7119772,106.563417 C96.9210958,105.128754 95.3967284,102.770952 93.6089887,103.837957 C84.0637356,109.548635 75.9071732,118.712093 68.6205376,127.591817 C70.1967813,115.706895 72.0324069,103.873924 74.115443,92.0889084 C77.443512,89.4193966 80.8154764,86.550071 83.2975614,83.3330695 C84.5106705,81.7625334 83.0102461,79.1689508 81.0150009,80.3678333 C79.0836035,81.5347457 77.2519684,82.9973824 75.4722097,84.5479371 C79.6342912,62.2926808 84.8059668,40.2292457 91.3184472,18.4215721 C89.6145078,38.9983929 89.0438677,59.6271653 91.7454297,80.1880009 C95.0814797,105.552359 102.515763,130.085493 108.58929,154.862399 C120.911924,205.143533 127.448348,281.955937 64.5103325,298.948099 Z M12.5421755,157.611836 C26.1697004,108.449659 56.6929617,66.8963898 85.1531395,25.1393107 C78.1977147,46.3275615 72.9422388,67.9953654 68.8599671,89.9149347 C66.3220151,86.3862237 64.4464846,82.1701534 62.9620222,78.2218336 C62.3913821,76.7072453 60.0529547,77.2827089 60.4919086,78.9051966 C62.0362284,84.5799073 64.6699521,89.3434673 67.3036758,94.5426213 C67.4593049,94.8503345 67.6747914,95.0701296 67.9182113,95.2259844 C65.9947949,106.05589 64.3187889,116.937747 62.8862029,127.851575 C56.9124387,119.771106 51.1102656,111.57075 45.3479974,103.33043 C44.3384033,101.887775 42.0558428,103.154594 42.9537031,104.733123 C48.7399143,114.899647 55.2643661,124.566637 62.1000763,134.045801 C60.2564697,148.963896 58.7799882,163.925951 57.5429362,178.864027 C51.9562496,172.857626 46.5052396,166.739328 41.0582202,160.597053 C40.1723313,159.601981 38.4005536,160.93274 39.1906707,162.043705 C44.7174999,169.81646 50.8269408,177.169606 57.1039822,184.350913 C55.8549587,199.820494 54.7376214,215.517863 54.2827055,231.243206 C50.2203862,228.433824 44.7494238,220.709024 42.4149869,218.283285 C36.8043574,212.456716 31.3932524,206.458307 25.9103185,200.503857 C25.0723155,199.592706 23.4003,200.823559 24.1624837,201.858594 C33.1849826,214.067215 43.3886666,225.336711 54.1510193,236.022751 C53.9115899,248.327282 54.1071239,260.631813 55.0448892,272.836437 C48.5643327,266.370464 41.5809744,260.435996 34.0309665,255.240838 C32.6781903,254.313702 30.9782413,256.475687 32.2631793,257.542692 C40.6950856,264.528181 48.4565895,271.885324 55.6913486,280.073692 C56.5093992,288.106205 57.6506794,296.086766 59.2269231,303.983406 C7.05924168,277.703901 -1.7517612,209.195756 12.5421755,157.611836 Z M122.536054,189.729899 C118.67725,161.352349 109.602874,134.065783 103.293909,106.207748 C95.4925002,71.7478678 95.6361579,38.0512757 99.2236088,3.10784572 C99.5747719,-0.312965811 94.7821929,-0.988336312 93.1899872,1.47336918 C56.8645528,57.5770761 10.7304929,112.553833 1.35683085,181.034005 C-4.90424865,226.803344 9.79671812,293.49718 60.2524792,308.583119 C62.8941838,320.527985 66.4736538,332.277034 71.389938,343.706381 C72.5511707,346.407863 77.2439875,344.461677 76.1785265,341.68027 C71.5615291,329.6315 68.1815837,317.430872 65.6955081,305.126341 C117.831266,297.297638 128.44198,233.129447 122.536054,189.729899 L122.536054,189.729899 Z" id="leaf"></path>
        </g>
    </g>
</svg>